<svg width="20" height="18" viewBox="0 0 20 18" fill="none" xmlns="http://www.w3.org/2000/svg">
    <path fill-rule="evenodd" clip-rule="evenodd" d="M13.6541 0.87975L13.5627 0.8765L13.4712 0.875L13.3798 0.875167L13.2884 0.877167L13.1971 0.880833L13.106 0.886167L13.015 0.89325L12.9242 0.902083L12.8336 0.9125L12.7432 0.924667L12.6532 0.938583L12.5634 0.954083L12.474 0.97125L12.385 0.990167L12.2964 1.01067L12.2083 1.03283L12.1206 1.05667L12.0334 1.08217L11.9468 1.10925L11.8607 1.138L11.7753 1.16833L11.6905 1.20033L11.6063 1.23392L11.5229 1.26908L11.4402 1.30592L11.3583 1.34425L11.2772 1.38425L11.1968 1.42583L11.1174 1.469L11.0389 1.51367L10.9612 1.56L10.8986 1.59892L10.8368 1.63875L10.7759 1.6795L10.716 1.721L10.6571 1.76333L10.599 1.8065L10.542 1.8505L10.4859 1.89533L10.4307 1.94092L10.3767 1.98733L10.3235 2.0345L10.2714 2.08242L10.2203 2.13117L10.1702 2.18067L10.1211 2.23083L10.073 2.28183L10.026 2.33358L9.98 2.386L9.93508 2.43917L9.89125 2.493L9.8485 2.54758L9.80675 2.60283L9.76617 2.65883L9.72667 2.71542L9.68825 2.77275L9.65092 2.83075L9.61467 2.88933L9.57967 2.94858L9.54567 3.0085L9.51292 3.06908L9.48125 3.13017L9.45075 3.192L9.42142 3.25433L9.39325 3.31733L9.36625 3.38092L9.3405 3.44508L9.31583 3.50975L9.2925 3.57508L9.27025 3.64092L9.24933 3.70733L9.22958 3.77425L9.21108 3.84175L9.19383 3.90975L9.17775 3.97833L9.163 4.04733L9.1495 4.11683L9.13733 4.18692L9.12633 4.25742L9.11667 4.32842L9.10833 4.39983L9.10125 4.47183L9.09558 4.54417L9.09108 4.617L9.088 4.69025L9.08625 4.76392L9.08583 4.83808L9.08675 4.91258L9.08908 4.9875L9.09275 5.06283L9.09775 5.13858L9.10417 5.21467L9.11192 5.29117L9.12117 5.368L9.13175 5.44517L9.00917 5.42758L8.88708 5.40875L8.76567 5.38867L8.64492 5.36725L8.52467 5.34458L8.40508 5.32058L8.28617 5.29533L8.16775 5.26883L8.05 5.24108L7.93292 5.212L7.81642 5.18167L7.7005 5.15008L7.58517 5.11725L7.47058 5.08308L7.3565 5.04767L7.24308 5.011L7.13033 4.97308L7.01817 4.93383L6.90658 4.89333L6.79567 4.85158L6.68542 4.80858L6.57575 4.76433L6.46675 4.71875L6.35833 4.67192L6.25058 4.62383L6.1435 4.5745L6.037 4.52392L5.93117 4.47208L5.82592 4.41892L5.72142 4.36458L5.61742 4.30892L5.51417 4.252L5.4115 4.19383L5.3095 4.13442L5.20817 4.07375L5.1075 4.01175L5.00742 3.94858L4.908 3.88417L4.80925 3.81842L4.71117 3.75142L4.61367 3.68325L4.51683 3.61375L4.42075 3.54308L4.32525 3.47108L4.23042 3.39783L4.13625 3.32333L4.04275 3.24767L3.94983 3.17067L3.85767 3.09242L3.76617 3.01292L3.67525 2.93225L3.58508 2.85025L3.49558 2.767L3.40667 2.68258L3.3185 2.59683L3.231 2.50992L3.14408 2.42167L3.05792 2.33225L2.97242 2.2415L2.88758 2.14958L2.80342 2.05642L2.72 1.962L2.63717 1.86633L2.55508 1.76942L2.00333 1.11158L1.591 1.86325L1.54317 1.95267L1.49742 2.04283L1.45367 2.13375L1.412 2.22533L1.37233 2.31767L1.33483 2.4105L1.29933 2.50392L1.266 2.59792L1.23467 2.69242L1.20542 2.78742L1.17833 2.88283L1.15333 2.97858L1.13042 3.07475L1.10958 3.17125L1.09092 3.268L1.07442 3.365L1.06 3.46217L1.04775 3.55958L1.03758 3.65708L1.02958 3.75475L1.02375 3.85242L1.02008 3.95017L1.01858 4.04792L1.01933 4.14558L1.02217 4.24317L1.02717 4.34067L1.03442 4.43792L1.04383 4.53508L1.0555 4.632L1.06933 4.72858L1.08542 4.82492L1.10367 4.92092L1.12025 4.99933L1.13825 5.07725L1.15758 5.15467L1.17833 5.23167L1.2005 5.30817L1.22392 5.38417L1.24875 5.45958L1.27492 5.53458L1.3025 5.609L1.33133 5.68292L1.36158 5.75625L1.39308 5.82908L1.42592 5.90133L1.46017 5.973L1.49567 6.04408L1.53242 6.11458L1.05908 5.9325L1.00292 6.71758L0.998583 6.79275L0.996083 6.86867L0.995417 6.94517L0.996667 7.02233L0.999667 7.10008L1.00458 7.17833L1.01125 7.257L1.01975 7.33608L1.03 7.41542L1.042 7.49517L1.05575 7.57508L1.07117 7.65517L1.08833 7.73533L1.10725 7.81567L1.12783 7.89592L1.15 7.97617L1.17392 8.05625L1.19942 8.13625L1.2265 8.21592L1.25517 8.29542L1.2855 8.37458L1.31733 8.45333L1.35075 8.53167L1.38567 8.6095L1.42217 8.68675L1.46008 8.76342L1.49958 8.8395L1.5405 8.91475L1.58283 8.98933L1.62667 9.063L1.67192 9.13583L1.71858 9.20775L1.77383 9.28908L1.833 9.37217L1.86417 9.41425L1.89625 9.45667L1.92942 9.49933L1.96358 9.54225L1.99883 9.58533L2.03517 9.62867L2.0725 9.67208L2.111 9.71567L2.15058 9.75925L2.19125 9.80292L2.233 9.8465L2.276 9.89017L2.03142 9.85292L2.32983 10.7525L2.34858 10.8077L2.36783 10.8625L2.38775 10.9169L2.40833 10.9709L2.42942 11.0246L2.45117 11.0778L2.4735 11.1306L2.49642 11.1829L2.51992 11.2349L2.544 11.2864L2.56867 11.3376L2.59392 11.3882L2.61967 11.4385L2.64608 11.4883L2.673 11.5377L2.7005 11.5867L2.7285 11.6352L2.75708 11.6832L2.78625 11.7308L2.81592 11.778L2.84617 11.8247L2.87692 11.8709L2.90817 11.9167L2.93992 11.9621L2.97225 12.0069L3.00508 12.0512L3.03842 12.0952L3.07233 12.1386L3.10667 12.1816L3.1415 12.224L3.17683 12.266L3.21267 12.3075L3.249 12.3485L3.28583 12.389L3.32317 12.429L3.36092 12.4685L3.39917 12.5075L3.43783 12.5459L3.477 12.5839L3.51667 12.6214L3.55675 12.6583L3.59725 12.6947L3.63825 12.7306L3.67967 12.766L3.7215 12.8007L3.76375 12.8351L3.8065 12.8688L3.84967 12.9021L3.89317 12.9347L3.93717 12.9668L3.98158 12.9984L4.02633 13.0294L4.07158 13.0599L4.11717 13.0897L4.16317 13.1191L4.20958 13.1479L4.25642 13.1761L4.30358 13.2037L4.35108 13.2307L4.399 13.2572L4.44733 13.2832L4.496 13.3084L4.545 13.3332L4.59442 13.3573L4.39858 13.4389L4.20642 13.5173L4.01683 13.5927L3.82867 13.666L3.64083 13.7374L3.45233 13.8075L3.26192 13.8768L3.0685 13.9458L2.87108 14.0148L2.6685 14.0846L2.45967 14.1554L2.24342 14.2279L1.7845 14.3797L1.28292 14.544L0 14.9627L1.185 15.6058L1.28283 15.6582L1.40583 15.7224L1.55217 15.7967L1.63367 15.8371L1.72025 15.8794L1.81192 15.9234L1.90842 15.9688L2.00942 16.0155L2.11483 16.0633L2.22433 16.1119L2.33783 16.1611L2.45508 16.2108L2.57575 16.2607L2.69975 16.3105L2.82683 16.3602L2.95683 16.4094L3.0895 16.458L3.2245 16.5058L3.36183 16.5525L3.50117 16.5979L3.64233 16.6419L3.785 16.6842L3.92908 16.7247L4.07442 16.763L4.14742 16.7813L4.22058 16.799L4.294 16.8161L4.36758 16.8325L4.44125 16.8482L4.51508 16.8632L4.58892 16.8776L4.66283 16.8911L4.73683 16.9038L4.81075 16.9157L4.97542 16.9407L5.14075 16.964L5.30658 16.9859L5.473 17.0063L5.63983 17.0252L5.80717 17.0424L5.97492 17.0582L6.143 17.0723L6.31142 17.0847L6.48017 17.0956L6.64917 17.1047L6.81833 17.1122L6.98767 17.118L7.15717 17.122L7.32675 17.1243L7.49633 17.1248L7.666 17.1235L7.83558 17.1204L8.00517 17.1155L8.17458 17.1087L8.34383 17.1L8.513 17.0894L8.68183 17.0769L8.8505 17.0624L9.01875 17.046L9.18675 17.0276L9.35433 17.0072L9.5215 16.9847L9.68817 16.9602L9.85442 16.9337L10.02 16.9049L10.1851 16.8742L10.3496 16.8412L10.5133 16.8061L10.6764 16.7688L10.8387 16.7293L11.0003 16.6876L11.1611 16.6437L11.321 16.5974L11.48 16.5489L11.5591 16.5237L11.638 16.498L11.7167 16.4718L11.7951 16.4448L11.8733 16.4174L11.9512 16.3893L12.0287 16.3607L12.1062 16.3314L12.1832 16.3016L12.26 16.2711L12.3366 16.2401L12.4128 16.2084L12.4887 16.1761L12.5644 16.1432L12.6397 16.1097L12.7147 16.0756L12.7895 16.0408L12.8638 16.0055L12.9379 15.9695L13.0117 15.9328L13.0851 15.8956L13.1582 15.8577L13.2309 15.8192L13.3032 15.78L13.3753 15.7402L13.447 15.6997L13.5183 15.6587L13.5892 15.6169L13.6597 15.5745L13.7299 15.5314L13.7997 15.4877L13.8692 15.4432L13.9382 15.3982L14.0068 15.3525L14.075 15.3062L14.1428 15.2591L14.2102 15.2113L14.2772 15.1629L14.3437 15.1138L14.4099 15.0641L14.4756 15.0136L14.5408 14.9624L14.6057 14.9106L14.67 14.8581L14.7339 14.8048L14.7974 14.7509L14.8604 14.6962L14.9229 14.6409L15.0268 14.5465L15.1284 14.4508L15.2279 14.3539L15.3252 14.2559L15.4203 14.1567L15.5134 14.0563L15.6043 13.9547L15.6931 13.8522L15.7798 13.7484L15.8645 13.6436L15.9471 13.5377L16.0276 13.4307L16.1061 13.3227L16.1826 13.2137L16.257 13.1037L16.3295 12.9927L16.4 12.8807L16.4686 12.7677L16.5352 12.6539L16.5998 12.5391L16.6626 12.4234L16.7234 12.3068L16.7823 12.1893L16.8394 12.071L16.8946 11.9519L16.9479 11.8319L16.9994 11.7112L17.0491 11.5896L17.097 11.4672L17.1431 11.3442L17.1874 11.2203L17.2299 11.0957L17.2707 10.9705L17.3097 10.8446L17.3471 10.718L17.3827 10.5907L17.4167 10.4628L17.4489 10.3343L17.4794 10.2052L17.5084 10.0755L17.5357 9.94517L17.5613 9.81433L17.5854 9.683L17.6078 9.55108L17.6287 9.41867L17.648 9.28583L17.6658 9.15242L17.682 9.01867L17.6967 8.88442L17.7098 8.74975L17.7215 8.61467L17.7317 8.47925L17.7404 8.34342L17.7477 8.20725L17.7536 8.07075L17.7579 7.93392L17.7609 7.79675L17.7625 7.65933L17.7627 7.52158L17.7616 7.38367L17.7591 7.2455L17.7552 7.10708L17.75 6.9685L17.7435 6.82967L17.7417 6.78775L17.7409 6.74583V6.70417L17.7417 6.66258L17.7434 6.62125L17.7459 6.58008L17.7493 6.53908L17.7534 6.49842L17.7584 6.45783L17.7642 6.41758L17.7708 6.37758L17.7783 6.33792L17.7866 6.2985L17.7957 6.25942L17.8055 6.22058L17.8162 6.18217L17.8277 6.144L17.8399 6.10633L17.853 6.06892L17.8667 6.032L17.8814 5.99542L17.8967 5.95933L17.9129 5.92358L17.9297 5.88842L17.9474 5.85358L17.9658 5.81933L17.9851 5.78558L18.005 5.75225L18.0256 5.7195L18.047 5.68733L18.0692 5.65567L18.092 5.62458L18.3164 5.325L18.5991 4.94458L18.9131 4.52042L19.231 4.08975L19.7704 3.35742L19.9998 3.04542L20 3.04508L19.2747 3.07775L18.8951 3.09458L18.7247 3.10275L18.6753 3.10592L18.6272 3.10975L19.3722 0.997417L18.9996 1.1325L18.6052 1.27417L18.1357 1.441L17.8875 1.52833L17.6384 1.61508L17.3943 1.69908L17.1612 1.77808L16.9449 1.84983L16.7514 1.912L16.6652 1.93883L16.5868 1.96233L16.5172 1.98242L16.4569 1.99867L16.3837 1.93483L16.3096 1.873L16.2343 1.813L16.1581 1.755L16.0808 1.69892L16.0027 1.64467L15.9236 1.59233L15.8437 1.54192L15.7628 1.49342L15.6812 1.44675L15.5989 1.402L15.5157 1.35908L15.4319 1.318L15.3473 1.27883L15.2622 1.2415L15.1763 1.206L15.0899 1.17242L15.003 1.14058L14.9155 1.11058L14.8276 1.0825L14.7392 1.05608L14.6503 1.03158L14.5611 1.00892L14.4714 0.988L14.3815 0.968833L14.2912 0.9515L14.2008 0.935917L14.1101 0.922167L14.0192 0.910167L13.9281 0.899917L13.8368 0.891417L13.7455 0.884667L13.6541 0.87975ZM13.314 1.71008L13.3896 1.7085L13.4653 1.70833L13.541 1.70958L13.6166 1.71225L13.6921 1.71633L13.7676 1.72191L13.8429 1.72891L13.918 1.73733L13.9929 1.74725L14.0676 1.75858L14.1421 1.77141L14.2161 1.78566L14.29 1.80133L14.3635 1.8185L14.4366 1.83708L14.5093 1.85716L14.5816 1.87875L14.6534 1.90166L14.7247 1.92616L14.7956 1.95208L14.8659 1.97941L14.9356 2.00825L15.0048 2.03858L15.0735 2.07041L15.1414 2.10366L15.2088 2.13841L15.2755 2.17466L15.3415 2.21241L15.4068 2.25166L15.4714 2.29241L15.5352 2.33466L15.5984 2.37841L15.6607 2.42375L15.7222 2.47058L15.783 2.51891L15.8429 2.56891L16.2442 2.919L16.7408 2.78516L16.822 2.76183L16.9087 2.73575L17.0025 2.70658L17.2035 2.642L17.426 2.56825L17.6636 2.48775L17.9111 2.4025L18.0044 2.37L17.4148 4.0415L18.2813 3.973L18.2429 4.02508L17.9297 4.44816L17.6485 4.82666L17.4228 5.12783L17.3919 5.16991L17.3584 5.21791L17.3261 5.26658L17.2949 5.31591L17.265 5.36591L17.2363 5.4165L17.2088 5.46766L17.1825 5.51941L17.1575 5.57166L17.1336 5.6245L17.1109 5.67775L17.0895 5.7315L17.0691 5.78566L17.0501 5.84025L17.0322 5.89525L17.0156 5.95066L17.0001 6.00633L16.9859 6.06241L16.9728 6.11883L16.9609 6.1755L16.9502 6.2325L16.9407 6.28966L16.9324 6.34716L16.9252 6.40483L16.9193 6.46275L16.9146 6.52083L16.9111 6.57916L16.9087 6.63758L16.9076 6.69616V6.75483L16.9088 6.81358L16.911 6.86633L16.9174 7.00358L16.9223 7.13425L16.9259 7.26466L16.9283 7.39475L16.9294 7.5245L16.9291 7.65383L16.9277 7.78283L16.9249 7.91141L16.9207 8.0395L16.9153 8.16725L16.9085 8.2945L16.9004 8.42125L16.8909 8.5475L16.88 8.67325L16.8677 8.7985L16.8541 8.92325L16.8391 9.04733L16.8226 9.17091L16.8047 9.29391L16.7855 9.41625L16.7647 9.538L16.7426 9.65908L16.7189 9.77958L16.6938 9.89933L16.6672 10.0185L16.6392 10.1369L16.6097 10.2546L16.5786 10.3716L16.5461 10.4878L16.5121 10.6033L16.4765 10.7181L16.4394 10.8321L16.4007 10.9452L16.3605 11.0577L16.3187 11.1692L16.2753 11.2801L16.2304 11.39L16.1839 11.4992L16.1357 11.6074L16.086 11.7149L16.0346 11.8215L15.9815 11.9272L15.9268 12.032L15.8704 12.136L15.8124 12.239L15.7526 12.3412L15.6911 12.4425L15.628 12.5428L15.5631 12.6423L15.4963 12.7408L15.4279 12.8384L15.3576 12.9351L15.2856 13.0308L15.2116 13.1256L15.1359 13.2194L15.0582 13.3122L14.9787 13.4042L14.8973 13.4951L14.814 13.585L14.7286 13.6739L14.6414 13.7619L14.5521 13.8488L14.4608 13.9347L14.3664 14.0206L14.3112 14.0694L14.2546 14.1186L14.1974 14.1672L14.1399 14.2151L14.0819 14.2624L14.0235 14.3091L13.9647 14.3552L13.9055 14.4007L13.8458 14.4456L13.7857 14.4899L13.7253 14.5336L13.6644 14.5767L13.6031 14.6192L13.5415 14.6612L13.4794 14.7026L13.4169 14.7433L13.3541 14.7835L13.2908 14.8232L13.2271 14.8622L13.1631 14.9007L13.0987 14.9386L13.034 14.9759L12.9689 15.0127L12.9034 15.0489L12.8375 15.0845L12.7712 15.1196L12.7046 15.1542L12.6377 15.1881L12.5705 15.2215L12.5028 15.2544L12.4348 15.2867L12.3666 15.3185L12.2979 15.3497L12.2289 15.3804L12.1596 15.4105L12.09 15.4401L12.02 15.4692L11.9497 15.4977L11.8791 15.5257L11.8083 15.5532L11.7371 15.5801L11.6656 15.6064L11.5938 15.6322L11.5218 15.6576L11.4495 15.6824L11.3768 15.7067L11.3039 15.7304L11.2322 15.7532L11.0836 15.7986L10.9354 15.8414L10.7862 15.8822L10.6361 15.921L10.4851 15.9577L10.3331 15.9925L10.1804 16.0252L10.0268 16.056L9.87248 16.0847L9.71748 16.1116L9.56173 16.1365L9.4054 16.1595L9.2484 16.1806L9.0909 16.1998L8.9329 16.2171L8.7744 16.2326L8.61548 16.2462L8.45615 16.258L8.29648 16.268L8.13648 16.2762L7.97623 16.2827L7.81581 16.2873L7.65523 16.2902L7.4944 16.2915L7.33356 16.291L7.17265 16.2888L7.01173 16.285L6.8509 16.2795L6.69006 16.2724L6.5294 16.2637L6.3689 16.2533L6.20865 16.2415L6.04856 16.2281L5.88881 16.2131L5.7294 16.1967L5.5704 16.1787L5.41181 16.1592L5.25365 16.1384L5.09598 16.1161L4.93931 16.0924L4.87398 16.0819L4.80865 16.0706L4.74315 16.0586L4.67731 16.0459L4.6114 16.0325L4.54531 16.0183L4.47915 16.0036L4.41298 15.9882L4.34665 15.9722L4.28198 15.9559L4.14798 15.9206L4.01598 15.8836L3.88473 15.8447L3.7544 15.804L3.62531 15.7619L3.49765 15.7185L3.37173 15.6739L3.24781 15.6285L3.12606 15.5824L3.00681 15.5358L2.89031 15.4889L2.77665 15.442L2.66623 15.3952L2.55915 15.3487L2.45573 15.3029L2.35623 15.2578L2.26081 15.2137L2.16973 15.1707L2.11948 15.1467L2.50673 15.0186L2.72598 14.9451L2.93798 14.8731L3.14431 14.8021L3.34606 14.7315L3.54423 14.6608L3.7399 14.5897L3.93415 14.5174L4.1279 14.4437L4.32215 14.3682L4.5179 14.2902L4.71615 14.2093L6.61615 13.4175L4.91548 12.5867L4.87581 12.5667L4.8364 12.5462L4.79731 12.5252L4.75856 12.5038L4.72015 12.482L4.68206 12.4597L4.64431 12.4369L4.60681 12.4137L4.56965 12.39L4.53281 12.3658L4.4964 12.3412L4.46023 12.3162L4.4244 12.2907L4.3889 12.2648L4.35381 12.2385L4.31898 12.2117L4.28456 12.1845L4.2504 12.1568L4.21665 12.1287L4.18331 12.1002L4.15023 12.0713L4.11756 12.0419L4.08523 12.0122L4.05323 11.9819L4.02165 11.9512L3.9904 11.9202L3.95956 11.8887L3.92906 11.8568L3.8989 11.8246L3.86923 11.7918L3.83981 11.7587L3.8109 11.7252L3.78231 11.6912L3.75406 11.6569L3.72631 11.6222L3.6989 11.587L3.6719 11.5515L3.64531 11.5155L3.61906 11.4792L3.59331 11.4424L3.56798 11.4052L3.54298 11.3677L3.51848 11.3297L3.49431 11.2914L3.47065 11.2527L3.4474 11.2136L3.42456 11.1741L3.40215 11.1342L3.38015 11.0939L3.35865 11.0532L3.33756 11.0122L3.31698 10.9707L3.29681 10.929L3.27706 10.8867L3.27648 10.8855L4.62898 11.0916L2.83081 9.26591L2.7969 9.2305L2.7639 9.19516L2.73181 9.15975L2.70056 9.12441L2.67023 9.08916L2.64073 9.054L2.61215 9.019L2.5844 8.98408L2.55748 8.94941L2.53131 8.915L2.50748 8.88266L2.4579 8.81316L2.41281 8.74675L2.3754 8.68908L2.33881 8.63016L2.30331 8.57041L2.26881 8.50983L2.23556 8.44858L2.2034 8.38658L2.1724 8.32408L2.14265 8.261L2.11415 8.1975L2.0869 8.13358L2.06098 8.06941L2.03623 8.00491L2.0129 7.94025L1.9909 7.8755L1.97023 7.81075L1.95098 7.746L1.93306 7.68133L1.91656 7.61691L1.90148 7.55266L1.88781 7.48883L1.87556 7.42541L1.86473 7.36241L1.85531 7.30008L1.84731 7.23833L1.84081 7.17733L1.83631 7.12433L3.29165 7.68416L2.23781 5.66516L2.20906 5.6075L2.1814 5.54941L2.15473 5.49091L2.12923 5.432L2.10482 5.37258L2.0814 5.31283L2.05915 5.25258L2.03798 5.192L2.0179 5.13091L1.9989 5.06941L1.98098 5.0075L1.96423 4.94516L1.94848 4.88241L1.9339 4.81925L1.92065 4.75666L1.90581 4.6785L1.8929 4.601L1.88173 4.52325L1.8724 4.44516L1.86473 4.36683L1.8589 4.28825L1.85481 4.20941L1.85256 4.1305L1.85198 4.05133L1.85323 3.97216L1.85615 3.89283L1.8609 3.8135L1.8674 3.73408L1.87565 3.65475L1.88565 3.57541L1.8974 3.49616L1.9109 3.417L1.92615 3.338L1.94315 3.25908L1.96181 3.1805L1.98231 3.102L2.00457 3.02391L2.02848 2.946L2.05415 2.8685L2.08156 2.79133L2.11073 2.71458L2.14156 2.63825L2.16248 2.58958L2.18206 2.61166L2.27215 2.71141L2.36298 2.80991L2.45465 2.90716L2.54715 3.00316L2.6404 3.09783L2.7344 3.19125L2.82915 3.28333L2.92473 3.37425L3.02115 3.46383L3.11823 3.55208L3.21615 3.63908L3.31481 3.72475L3.41431 3.80916L3.51448 3.89225L3.61548 3.974L3.71723 4.0545L3.81973 4.13358L3.92298 4.21141L4.02698 4.28791L4.13173 4.36316L4.23723 4.437L4.34348 4.5095L4.45048 4.58066L4.55823 4.6505L4.66665 4.719L4.77581 4.78616L4.88573 4.85191L4.99631 4.91641L5.10765 4.9795L5.21965 5.04116L5.3324 5.10158L5.44581 5.16058L5.55998 5.21816L5.67481 5.27441L5.79031 5.32933L5.90648 5.38283L6.02331 5.435L6.1409 5.48575L6.25906 5.53516L6.37798 5.58316L6.49748 5.62975L6.61765 5.675L6.73848 5.71883L6.8599 5.76133L6.98198 5.80241L7.10473 5.84208L7.22806 5.88041L7.35198 5.91733L7.47656 5.95283L7.60181 5.98691L7.72756 6.01966L7.85398 6.05108L7.98098 6.081L8.10856 6.10958L8.23681 6.13675L8.36556 6.16258L8.4949 6.187L8.62481 6.21L8.75531 6.23166L8.8864 6.25191L10.1077 6.42691L9.94773 5.26175L9.94023 5.19933L9.9339 5.13741L9.92873 5.076L9.92473 5.01508L9.92173 4.95458L9.9199 4.89466L9.91915 4.83525L9.91948 4.77625L9.9209 4.71783L9.9234 4.65983L9.9269 4.60241L9.9314 4.54541L9.9369 4.48891L9.94348 4.433L9.95098 4.3775L9.95956 4.32241L9.96906 4.26791L9.97956 4.21383L9.99098 4.16025L10.0034 4.10716L10.0168 4.05458L10.0311 4.00241L10.0463 3.95066L10.0626 3.8995L10.0796 3.84866L10.0976 3.79841L10.1166 3.74858L10.1365 3.69916L10.1572 3.65025L10.1789 3.60175L10.2015 3.55375L10.225 3.50616L10.2493 3.45908L10.2746 3.41241L10.3008 3.36625L10.3279 3.3205L10.3558 3.27516L10.3846 3.23033L10.4144 3.186L10.4451 3.14208L10.4766 3.09866L10.5091 3.05566L10.5423 3.01316L10.5766 2.97116L10.6116 2.92966L10.6476 2.88858L10.6845 2.848L10.7223 2.80791L10.761 2.76841L10.8005 2.72933L10.841 2.69083L10.8823 2.65275L10.9245 2.61525L10.9676 2.57833L11.0116 2.54191L11.0565 2.50608L11.1022 2.47075L11.1489 2.43608L11.1965 2.40191L11.2449 2.36833L11.2941 2.33541L11.3443 2.30308L11.3946 2.27175L11.4585 2.23375L11.5225 2.19725L11.5873 2.16208L11.6529 2.12808L11.7193 2.09541L11.7864 2.06391L11.8543 2.03375L11.9228 2.00483L11.992 1.97725L12.0618 1.95091L12.1322 1.92591L12.2031 1.90216L12.2747 1.87983L12.3467 1.85875L12.4191 1.83908L12.4921 1.82075L12.5654 1.80375L12.6391 1.78808L12.7131 1.77383L12.7876 1.761L12.8621 1.7495L12.9371 1.73941L13.0121 1.73075L13.0874 1.7235L13.1628 1.71758L13.2384 1.71316L13.314 1.71008Z" fill="black"/>
</svg>
