<svg xmlns="http://www.w3.org/2000/svg" width="35" height="35" viewBox="0 0 71.413 50">
  <g id="g5" transform="translate(0 0)">
    <path id="Subtraction_1" data-name="Subtraction 1" d="M-149.294-539c-.223,0-22.358-.017-27.941-1.53a8.947,8.947,0,0,1-6.295-6.294C-184.984-552.289-185-563.883-185-564s.017-11.652,1.471-17.177a9.155,9.155,0,0,1,6.295-6.352c5.524-1.454,27.718-1.471,27.941-1.471s22.417.017,27.941,1.529a8.947,8.947,0,0,1,6.294,6.294c1.512,5.524,1.471,17.119,1.471,17.236s-.017,11.652-1.471,17.177a8.947,8.947,0,0,1-6.294,6.295C-126.877-539.016-149.07-539-149.294-539Zm-7.118-35.707v21.412L-137.823-564l-18.589-10.706Z" transform="translate(185 589)" fill="red"/>
  </g>
</svg>
